<svg xmlns="http://www.w3.org/2000/svg" width="27.282" height="24.212" viewBox="0 0 27.282 24.212">
  <g id="Component_58_1" data-name="Component 58 – 1" transform="translate(0.5 0.5)">
    <path id="Path_51937" data-name="Path 51937" d="M1868.855,8654.623a2.333,2.333,0,0,1-4.666,0" transform="translate(-1864.189 -8633.744)" fill="none" stroke="#a0a0a0" stroke-miterlimit="10" stroke-width="1"/>
    <path id="Path_51938" data-name="Path 51938" d="M1890.471,8654.623a2.333,2.333,0,0,1-4.667,0" transform="translate(-1864.189 -8633.744)" fill="none" stroke="#a0a0a0" stroke-miterlimit="10" stroke-width="1"/>
    <path id="Path_51939" data-name="Path 51939" d="M1886.172,8633.744h-17.808l-4.175,9.825v11.053h26.282v-11.053Zm-16.784,16.457a2.333,2.333,0,1,1,2.333-2.333A2.334,2.334,0,0,1,1869.388,8650.2Zm16.048,0a2.333,2.333,0,1,1,2.333-2.333A2.334,2.334,0,0,1,1885.436,8650.2Zm-17.536-7.849,2.288-5.949h14.464l2.435,5.949Z" transform="translate(-1864.189 -8633.744)" fill="none" stroke="#a0a0a0" stroke-miterlimit="10" stroke-width="1"/>
  </g>
</svg>
