<svg id="Component_57_1" data-name="Component 57 – 1" xmlns="http://www.w3.org/2000/svg" width="33.269" height="24.907" viewBox="0 0 33.269 24.907">
  <path id="Path_51964" data-name="Path 51964" d="M3889.958,6030.134v-3.341a2.469,2.469,0,0,0-1.566-2.313l-10.639-4.27a11.929,11.929,0,0,0-8.86,0l-10.638,4.27a2.468,2.468,0,0,0-1.566,2.313v2.6a2.468,2.468,0,0,0,1.566,2.313l10.638,4.27a11.929,11.929,0,0,0,8.86,0l4.91-1.958-2.561-1.031-3.06,1.245a9.517,9.517,0,0,1-3.7.712,9.689,9.689,0,0,1-3.736-.712l-10.639-4.27a.611.611,0,0,1-.391-.569v-2.6a.577.577,0,0,1,.391-.569l10.639-4.269a10.39,10.39,0,0,1,3.736-.712,10.206,10.206,0,0,1,3.7.712l10.638,4.269a.576.576,0,0,1,.392.569v2.633Z" transform="translate(-3856.689 -6019.357)" fill="#fff"/>
  <path id="Path_51965" data-name="Path 51965" d="M3856.689,6033.5v3.327a2.468,2.468,0,0,0,1.566,2.314l10.638,4.27a11.929,11.929,0,0,0,8.86,0l10.639-4.27a2.47,2.47,0,0,0,1.566-2.314v-2.6a2.467,2.467,0,0,0-1.566-2.312l-10.639-4.27a11.9,11.9,0,0,0-8.86,0l-4.909,1.957,2.561,1.032,3.06-1.246a10.411,10.411,0,0,1,3.736-.712,10.226,10.226,0,0,1,3.7.712l10.638,4.27a.608.608,0,0,1,.392.569v2.6a.577.577,0,0,1-.392.57l-10.638,4.27a9.516,9.516,0,0,1-3.7.711,9.688,9.688,0,0,1-3.736-.711l-10.639-4.27a.579.579,0,0,1-.391-.57v-2.632Z" transform="translate(-3856.689 -6019.357)" fill="#fff"/>
</svg>
