<?xml version="1.0" encoding="utf-8"?>
<!-- Generator: Adobe Illustrator 17.0.0, SVG Export Plug-In . SVG Version: 6.00 Build 0)  -->
<!DOCTYPE svg PUBLIC "-//W3C//DTD SVG 1.1//EN" "http://www.w3.org/Graphics/SVG/1.1/DTD/svg11.dtd">
<svg version="1.1" id="Layer_1" xmlns="http://www.w3.org/2000/svg" xmlns:xlink="http://www.w3.org/1999/xlink" x="0px" y="0px"
	 width="512px" height="512px" viewBox="0 0 512 512" enable-background="new 0 0 512 512" xml:space="preserve">
<g>
	<path fill="#FFFFFF" d="M511.826,148.514v-0.003c-0.007-26.189-27.709-50.073-78.007-67.251c-3.914-1.336-8.183,0.753-9.521,4.674
		c-1.339,3.92,0.754,8.183,4.674,9.521c43.122,14.727,67.854,34.068,67.854,53.064c0,23.56-38.227,47.41-99.763,62.244
		c-3.368,0.812-5.742,3.825-5.742,7.29l-0.004,37.537l-20.2-4.236l-57.12-57.141c-2.633-2.633-6.794-2.936-9.78-0.716
		l-53.007,39.417l-54.818-59.453c-1.536-1.665-3.733-2.553-6.003-2.4c-2.261,0.148-4.333,1.311-5.639,3.162l-46.178,65.479
		l-18.458,3.799V217.96c0-3.463-2.37-6.475-5.735-7.289C53.08,195.833,15,172.018,15,148.52c0-18.969,24.671-38.289,67.687-53.008
		C128.844,79.718,190.364,71.02,255.913,71.02c50.935,0,99.74,5.275,141.143,15.255c4.03,0.973,8.078-1.507,9.049-5.533
		c0.971-4.027-1.507-8.078-5.533-9.049C358.035,61.44,308.014,56.02,255.913,56.02c-67.158,0-130.402,8.985-178.083,25.3
		C27.641,98.494,0,122.359,0,148.52v65c0,4.143,3.358,7.5,7.5,7.5s7.5-3.357,7.5-7.5v-32.772
		c16.949,17.301,47.792,32.215,90.114,43.073v215.017C49.269,423.937,15,401.341,15,378.991V248.52c0-4.143-3.358-7.5-7.5-7.5
		s-7.5,3.357-7.5,7.5v130.471c0,31.78,40.404,59.765,110.853,76.779c0.583,0.141,1.173,0.21,1.76,0.21
		c1.667,0,3.304-0.556,4.64-1.607c1.807-1.422,2.861-3.594,2.861-5.893V315.446c8.968-2.037,18.358-3.878,27.996-5.488
		c4.085-0.683,6.844-4.547,6.162-8.633s-4.55-6.854-8.633-6.162c-8.74,1.459-17.289,3.105-25.525,4.914v-41.261l24.388-5.019
		c1.868-0.384,3.519-1.465,4.618-3.023l42.537-60.317l53.1,57.589c2.601,2.821,6.91,3.224,9.989,0.935l53.223-39.577l54.118,54.138
		c1.031,1.03,2.339,1.738,3.766,2.037l25.464,5.34l-0.003,29.161c-40.503-8.902-87.15-13.588-135.607-13.588
		c-26.175,0-51.974,1.373-76.679,4.081c-4.117,0.451-7.089,4.154-6.638,8.272c0.452,4.118,4.156,7.092,8.273,6.638
		c24.165-2.648,49.413-3.991,75.044-3.991c48.69,0,95.421,4.818,135.606,13.957L391.3,448.48c0,2.3,1.054,4.472,2.86,5.894
		c1.336,1.052,2.974,1.607,4.64,1.607c0.588,0,1.179-0.069,1.761-0.21C471.382,438.666,512,410.68,512,378.985L511.826,148.514z
		 M406.3,438.839l0.021-214.918c42.547-10.87,73.535-25.827,90.53-43.191L497,378.991C497,401.265,462.507,423.865,406.3,438.839z"
		/>
	<path fill="#FFFFFF" d="M220.16,135.726c0,19.662,15.992,35.659,35.649,35.659s35.649-15.997,35.649-35.659
		s-15.992-35.659-35.649-35.659S220.16,116.064,220.16,135.726z M276.459,135.726c0,11.392-9.264,20.659-20.649,20.659
		c-11.386,0-20.649-9.268-20.649-20.659s9.263-20.659,20.649-20.659C267.195,115.067,276.459,124.334,276.459,135.726z"/>
</g>
</svg>
