<svg id="Layer_1" enable-background="new 0 0 512 512" height="512" viewBox="0 0 512 512" width="512" xmlns="http://www.w3.org/2000/svg"><g><path d="m511.826 148.514v-.003c-.007-26.189-27.709-50.073-78.007-67.251-3.914-1.336-8.183.753-9.521 4.674-1.339 3.92.754 8.183 4.674 9.521 43.122 14.727 67.854 34.068 67.854 53.064 0 23.56-38.227 47.41-99.763 62.244-3.368.812-5.742 3.825-5.742 7.29l-.004 37.537-20.2-4.236-57.12-57.141c-2.633-2.633-6.794-2.936-9.78-.716l-53.007 39.417-54.818-59.453c-1.536-1.665-3.733-2.553-6.003-2.4-2.261.148-4.333 1.311-5.639 3.162l-46.178 65.479-18.458 3.799v-25.541c0-3.463-2.37-6.475-5.735-7.289-61.299-14.838-99.379-38.653-99.379-62.151 0-18.969 24.671-38.289 67.687-53.008 46.157-15.794 107.677-24.492 173.226-24.492 50.935 0 99.74 5.275 141.143 15.255 4.03.973 8.078-1.507 9.049-5.533.971-4.027-1.507-8.078-5.533-9.049-42.537-10.253-92.558-15.673-144.659-15.673-67.158 0-130.402 8.985-178.083 25.3-50.189 17.174-77.83 41.039-77.83 67.2v65c0 4.143 3.358 7.5 7.5 7.5s7.5-3.357 7.5-7.5v-32.772c16.949 17.301 47.792 32.215 90.114 43.073v215.017c-55.845-14.901-90.114-37.497-90.114-59.847v-130.471c0-4.143-3.358-7.5-7.5-7.5s-7.5 3.357-7.5 7.5v130.471c0 31.78 40.404 59.765 110.853 76.779.583.141 1.173.21 1.76.21 1.667 0 3.304-.556 4.64-1.607 1.807-1.422 2.861-3.594 2.861-5.893v-133.034c8.968-2.037 18.358-3.878 27.996-5.488 4.085-.683 6.844-4.547 6.162-8.633s-4.55-6.854-8.633-6.162c-8.74 1.459-17.289 3.105-25.525 4.914v-41.261l24.388-5.019c1.868-.384 3.519-1.465 4.618-3.023l42.537-60.317 53.1 57.589c2.601 2.821 6.91 3.224 9.989.935l53.223-39.577 54.118 54.138c1.031 1.03 2.339 1.738 3.766 2.037l25.464 5.34-.003 29.161c-40.503-8.902-87.15-13.588-135.607-13.588-26.175 0-51.974 1.373-76.679 4.081-4.117.451-7.089 4.154-6.638 8.272.452 4.118 4.156 7.092 8.273 6.638 24.165-2.648 49.413-3.991 75.044-3.991 48.69 0 95.421 4.818 135.606 13.957l-.013 133.031c0 2.3 1.054 4.472 2.86 5.894 1.336 1.052 2.974 1.607 4.64 1.607.588 0 1.179-.069 1.761-.21 70.821-17.105 111.439-45.091 111.439-76.786zm-105.526 290.325.021-214.918c42.547-10.87 73.535-25.827 90.53-43.191l.149 198.261c0 22.274-34.493 44.874-90.7 59.848z"/><path d="m220.16 135.726c0 19.662 15.992 35.659 35.649 35.659s35.649-15.997 35.649-35.659-15.992-35.659-35.649-35.659-35.649 15.997-35.649 35.659zm56.299 0c0 11.392-9.264 20.659-20.649 20.659-11.386 0-20.649-9.268-20.649-20.659s9.263-20.659 20.649-20.659c11.385 0 20.649 9.267 20.649 20.659z"/></g></svg>