<svg id="Group_23038" data-name="Group 23038" xmlns="http://www.w3.org/2000/svg" width="66" height="66.001" viewBox="0 0 66 66.001">
  <path id="Path_52028" data-name="Path 52028" d="M994.032,718.7a33,33,0,1,1-33-33,33,33,0,0,1,33,33" transform="translate(-928.032 -685.695)" fill="#306ad0"/>
  <g id="Group_23037" data-name="Group 23037" transform="translate(21.675 21.443)">
    <path id="Path_22" data-name="Path 22" d="M956.456,709.077h-1.4v3.407h-3.474v1.4h3.474v3.406h1.4v-3.406h3.474v-1.4h-3.474Z" transform="translate(-945.673 -703.103)" fill="#fff"/>
    <path id="Path_23" data-name="Path 23" d="M969.275,726.185l-6.1-6.2a9.9,9.9,0,1,0-1.006.972l6.1,6.211Zm-22.2-13a8.682,8.682,0,1,1,8.681,8.681A8.691,8.691,0,0,1,947.074,713.185Z" transform="translate(-945.673 -703.103)" fill="#fff"/>
  </g>
</svg>
