<svg xmlns="http://www.w3.org/2000/svg" width="267.237" height="332.831" viewBox="0 0 267.237 332.831">
  <g id="Group_343" data-name="Group 343" transform="translate(-171.403 -360.988)">
    <path id="Path_20861" data-name="Path 20861" d="M344.827,392.035,251.21,362.051a11.182,11.182,0,0,0-8.323.6l-25.879,12.657a5.124,5.124,0,0,0-2.871,4.6V641.173l24.739,10.971a24.1,24.1,0,0,0,16.424,1.134l89.808-25.8a8.721,8.721,0,0,0,3.481-1.949l36.268-33.187V437.2a6.234,6.234,0,0,0-1.6-4.166l-34.6-38.521A8.724,8.724,0,0,0,344.827,392.035Z" fill="none" stroke="#2b2c2c" stroke-miterlimit="10" stroke-width="1"/>
    <path id="Path_20862" data-name="Path 20862" d="M214.137,608.739,171.9,614.352v37.281a3.2,3.2,0,0,0,1.641,2.8L237.9,690.375a22.244,22.244,0,0,0,19.314,1.148l179.84-74.052a1.748,1.748,0,0,0,1.083-1.617V595.1a.846.846,0,0,0-.8-.844l-15.626-.965a80.578,80.578,0,0,0-10.459.035l-16.246,1.112-10.157-2.094" fill="none" stroke="#2b2c2c" stroke-miterlimit="10" stroke-width="1"/>
    <path id="Path_20863" data-name="Path 20863" d="M347.145,626.6l20.009-5.149a74.656,74.656,0,0,0,11.216-3.863L412,602.915a57.4,57.4,0,0,1,5.892-2.194l20-6.218" fill="none" stroke="#2b2c2c" stroke-miterlimit="10" stroke-width="1"/>
    <path id="Path_20864" data-name="Path 20864" d="M438.14,606.066,255.178,660.879a22.714,22.714,0,0,1-15.881-1.065L171.9,629.323" fill="none" stroke="#2b2c2c" stroke-miterlimit="10" stroke-width="1"/>
    <path id="Path_20865" data-name="Path 20865" d="M214.137,406.923,240.9,396.645a22.08,22.08,0,0,1,13.532-.742l86.009,22.623a31.026,31.026,0,0,1,12.015,6.208l32.4,27.1" fill="none" stroke="#2b2c2c" stroke-miterlimit="10" stroke-width="1"/>
    <path id="Path_20866" data-name="Path 20866" d="M214.137,412.359,248,400.15l94.13,24.386a26.344,26.344,0,0,1,9.733,4.835l33,26.069v7.083l-33.043-23.657a26.408,26.408,0,0,0-9.483-4.268l-87.65-20.008a26.373,26.373,0,0,0-13.267.4l-27.277,7.973Z" fill="none" stroke="#2b2c2c" stroke-miterlimit="10" stroke-width="1"/>
    <path id="Path_20867" data-name="Path 20867" d="M214.137,428.575l27.029-8.666a26.366,26.366,0,0,1,13.828-.618l87.61,19.674a26.34,26.34,0,0,1,9.049,3.923l33.2,22.575v6.549l-33.347-19.45a26.369,26.369,0,0,0-8.574-3.166l-89.5-16.256a26.384,26.384,0,0,0-10.811.29L214.137,440.2Z" fill="none" stroke="#2b2c2c" stroke-miterlimit="10" stroke-width="1"/>
    <path id="Path_20868" data-name="Path 20868" d="M384.857,475.487l-33.571-18.461a26.385,26.385,0,0,0-8.034-2.846l-89.992-16.2a26.332,26.332,0,0,0-10.481.231l-28.642,6.468v12.23l29.218-6.11a26.354,26.354,0,0,1,9.329-.264l90.922,13.709a26.363,26.363,0,0,1,7.45,2.287l33.8,16.173Z" fill="#fff" stroke="#707070" stroke-width="1"/>
    <path id="Path_20869" data-name="Path 20869" d="M384.857,485.511l-34.1-14.937a26.393,26.393,0,0,0-6.783-1.94l-91.368-13.3a26.375,26.375,0,0,0-9.181.281l-29.293,6.107v11.628l30.544-4.413a26.293,26.293,0,0,1,6.644-.114l93.26,10.222a26.357,26.357,0,0,1,5.692,1.274l34.58,11.876Z" fill="none" stroke="#2b2c2c" stroke-miterlimit="10" stroke-width="1"/>
    <path id="Path_20870" data-name="Path 20870" d="M384.857,495.4,350.02,484.527a26.455,26.455,0,0,0-5.142-1.058l-93.594-9.688a26.316,26.316,0,0,0-6.558.141l-30.589,4.505v11.227l31.574-3.146a26.381,26.381,0,0,1,4.575-.056l95.29,7.109a26.353,26.353,0,0,1,3.81.567l35.471,7.956Z" fill="none" stroke="#2b2c2c" stroke-miterlimit="10" stroke-width="1"/>
    <path id="Path_20871" data-name="Path 20871" d="M384.857,574.791l-33.208,21.446a26.342,26.342,0,0,1-8.982,3.675l-88.4,18.223a26.368,26.368,0,0,1-12.438-.435l-27.693-7.758v31.231l-7.838-3.085a20.267,20.267,0,0,1-5.892-3.58l-7.367-6.421a65.353,65.353,0,0,0-9.781-7.049L171.9,614.353" fill="none" stroke="#2b2c2c" stroke-miterlimit="10" stroke-width="1"/>
    <path id="Path_20872" data-name="Path 20872" d="M384.857,564.634l-33.642,17.612a26.373,26.373,0,0,1-7.847,2.642L253.152,600.1a26.36,26.36,0,0,1-10.254-.3l-28.761-6.567V605.4L242,612.988a26.372,26.372,0,0,0,12.088.417l88.794-17.711a26.385,26.385,0,0,0,8.633-3.384l33.341-20.459Z" fill="none" stroke="#2b2c2c" stroke-miterlimit="10" stroke-width="1"/>
    <path id="Path_20873" data-name="Path 20873" d="M384.857,554.609l-34.093,14.12a26.336,26.336,0,0,1-6.765,1.8l-92.1,11.706a26.387,26.387,0,0,1-7.775-.168l-29.984-5.134v11.9l28.721,6.731a26.361,26.361,0,0,0,10.344.338l90.353-15.026a26.411,26.411,0,0,0,7.521-2.454l33.781-16.989Z" fill="none" stroke="#2b2c2c" stroke-miterlimit="10" stroke-width="1"/>
    <path id="Path_20874" data-name="Path 20874" d="M384.857,515.182,347.5,512.323l-98.7-2.591q-.81-.021-1.622.008l-33.048,1.166v12.028H248l99.506-.025L384.857,522Z" fill="none" stroke="#2b2c2c" stroke-miterlimit="10" stroke-width="1"/>
    <path id="Path_20875" data-name="Path 20875" d="M384.857,505.158l-35.714-6.889a26.3,26.3,0,0,0-3.309-.423l-95.772-6.13a26.327,26.327,0,0,0-4.127.059l-31.8,2.958v11.494l32.95-1.262q.909-.036,1.819-.007l97.691,3q.9.027,1.806.118l36.454,3.633Z" fill="none" stroke="#2b2c2c" stroke-miterlimit="10" stroke-width="1"/>
    <path id="Path_20876" data-name="Path 20876" d="M384.857,525.258l-37.355,1.8L248,528.285l-33.859,0v11.495l32.415,2.068a26.524,26.524,0,0,0,2.889.026l96.7-4.441a26.681,26.681,0,0,0,2.706-.265l36.009-5.408Z" fill="none" stroke="#2b2c2c" stroke-miterlimit="10" stroke-width="1"/>
    <path id="Path_20877" data-name="Path 20877" d="M384.857,535.5l-35.891,5.954a26.248,26.248,0,0,1-2.946.32l-96.347,5.011a26.371,26.371,0,0,1-3.351-.039l-32.185-2.425v11.361l31.444,3.413a26.406,26.406,0,0,0,4.837.078l94.488-7.158a26.375,26.375,0,0,0,5.1-.9l34.848-9.736Z" fill="none" stroke="#2b2c2c" stroke-miterlimit="10" stroke-width="1"/>
    <path id="Path_20878" data-name="Path 20878" d="M384.857,544.986l-34.921,10.053a26.345,26.345,0,0,1-4.957.925l-94.327,8.393a26.422,26.422,0,0,1-5.3-.064l-31.21-3.536v11.227l30.126,5.079a26.383,26.383,0,0,0,7.492.183l92.6-10.992a26.351,26.351,0,0,0,6.113-1.482l34.388-12.836Z" fill="none" stroke="#2b2c2c" stroke-miterlimit="10" stroke-width="1"/>
  </g>
</svg>
