<svg xmlns="http://www.w3.org/2000/svg" viewBox="0 0 439.81 135.47">
    <title>logo</title>
    <polygon
            points="128.34 124.57 128.34 135.29 126.89 135.29 126.89 123.12 129.31 123.12 133.26 132.35 137.13 123.12 139.56 123.12 139.56 135.29 138.03 135.29 138.03 124.57 133.9 134.17 132.47 134.17 128.34 124.57"
            fill="currentColor"/>
    <path d="M12336.15,2171.78c0-3-1.54-4.86-4.28-4.86s-4.31,1.91-4.31,4.86,1.56,4.87,4.31,4.87,4.28-1.93,4.28-4.87m-10.13,0c0-3.85,2.3-6.26,5.85-6.26s5.83,2.42,5.83,6.26-2.28,6.26-5.83,6.26-5.85-2.32-5.85-6.26"
          transform="translate(-12178.54 -2042.57)" fill="currentColor"/>
    <path d="M12346.5,2174.39c0.37,1.61,1.63,2.29,3.46,2.29s3.11-.77,3.11-2-0.67-1.75-2.07-2l-2.14-.36c-2.29-.39-3.4-1.36-3.4-3.32,0-2.18,1.87-3.49,4.5-3.49s4.15,1.27,4.5,3.29l-1.44.23c-0.29-1.23-1.18-2.17-3.1-2.17s-3,.91-3,2.1,0.64,1.68,2.35,2l2.07,0.36c2.09,0.36,3.21,1.33,3.21,3.29,0,2.29-2,3.43-4.66,3.43s-4.41-1-4.86-3.4Z"
          transform="translate(-12178.54 -2042.57)" fill="currentColor"/>
    <path d="M12371.34,2173.85l1.45,0.23c-0.46,2.58-2.3,4-5.16,4-3.51,0-5.7-2.36-5.7-6.25s2.28-6.28,5.7-6.28c2.88,0,4.72,1.38,5.13,4l-1.45.23a3.37,3.37,0,0,0-3.68-2.79c-2.74,0-4.18,2-4.18,4.88s1.49,4.85,4.18,4.85c2.25,0,3.35-1.09,3.72-2.79"
          transform="translate(-12178.54 -2042.57)" fill="currentColor"/>
    <path d="M12390,2171.78c0-3-1.53-4.86-4.28-4.86s-4.3,1.91-4.3,4.86,1.55,4.87,4.3,4.87,4.28-1.93,4.28-4.87m-10.13,0c0-3.85,2.3-6.26,5.85-6.26s5.83,2.42,5.83,6.26-2.28,6.26-5.83,6.26-5.85-2.32-5.85-6.26"
          transform="translate(-12178.54 -2042.57)" fill="currentColor"/>
    <polygon
            points="232.22 133.32 235.33 123.12 236.94 123.12 232.99 135.29 231.34 135.29 227.82 124.61 224.32 135.29 222.67 135.29 218.62 123.12 220.23 123.12 223.53 133.32 226.8 123.12 228.87 123.12 232.22 133.32"
            fill="currentColor"/>
    <polygon
            points="251.42 123.12 253.06 123.12 257.19 133.45 261.18 123.12 262.79 123.12 257.97 135.29 256.36 135.29 251.42 123.12"
            fill="currentColor"/>
    <rect x="269.88" y="123.13" width="1.54" height="12.17" fill="currentColor"/>
    <polygon points="288.42 135.29 279.92 135.29 279.92 123.12 281.46 123.12 281.46 133.86 288.42 133.86 288.42 135.29"
             fill="currentColor"/>
    <polygon points="303.2 135.29 294.7 135.29 294.7 123.12 296.24 123.12 296.24 133.86 303.2 133.86 303.2 135.29"
             fill="currentColor"/>
    <path d="M12494.76,2173l-2.23-5.93-2.21,5.93h4.44Zm3.5,4.83h-1.67l-1.31-3.43h-5.48l-1.27,3.43h-1.65l4.7-12.17h1.94Z"
          transform="translate(-12178.54 -2042.57)" fill="currentColor"/>
    <path d="M12505,2174.39c0.38,1.61,1.63,2.29,3.46,2.29s3.11-.77,3.11-2-0.67-1.75-2.07-2l-2.14-.36c-2.29-.39-3.4-1.36-3.4-3.32,0-2.18,1.87-3.49,4.5-3.49s4.15,1.27,4.5,3.29l-1.44.23c-0.29-1.23-1.18-2.17-3.1-2.17s-3,.91-3,2.1,0.64,1.68,2.35,2l2.07,0.36c2.09,0.36,3.21,1.33,3.21,3.29,0,2.29-2,3.43-4.67,3.43s-4.41-1-4.85-3.4Z"
          transform="translate(-12178.54 -2042.57)" fill="currentColor"/>
    <polygon points="349.31 9.24 343.2 0 315.52 23.72 316.37 24.94 349.31 9.24" fill="currentColor"/>
    <path d="M12235.38,2133.46c-25.37,0-42.57-16.18-42.57-43.2,0-26.29,15.61-42.35,39.15-42.35,14.15,0,27.2,5.36,31.47,19.71l1,3.28h0.85V2049a90.38,90.38,0,0,0-31-6.08c-31.11,0-55.74,17.76-55.74,52.69,0,30.79,22.93,47.09,50,47.09,21.1,0,32.93-8.64,39.88-20.08l-0.85-.72c-7.44,6.44-17.81,11.55-32.21,11.55"
          transform="translate(-12178.54 -2042.57)" fill="currentColor"/>
    <path d="M12458.45,2129.81v-39.67c0-11.8-5.61-18.74-18.3-18.74-11.83,0-22,7.9-24.52,18-0.27-11.64-6.24-18-18.28-18-9.76,0-21.09,5.9-24.63,18.45v-18h-1.22l-21.83,4.87v1.09l2.81,0.24c5.72,0.49,8.17,3.29,8.17,9.74v42c0,6.08-2.32,9.37-8.17,10.22l-1.59.24v1.09h31.71v-1.09l-1.58-.24c-5.86-.86-8.17-4.14-8.17-10.22v-26.65c0-17,11-24.34,19-24.34s11.59,4.5,11.59,13.63v37.35c0,6.08-2.32,9.37-8.17,10.22l-1.59.24v1.09h31.72v-1.09l-1.59-.24c-5.85-.86-8.17-4.14-8.17-10.22v-26.65c0-17.4,11.34-24.34,19.64-24.34s11,4.74,11,13.75v37.23c0,6.08-2.32,9.37-8.17,10.22l-1.59.24v1.09h31.71v-1.09l-1.59-.24c-5.86-.86-8.17-4.14-8.17-10.22"
          transform="translate(-12178.54 -2042.57)" fill="currentColor"/>
    <path d="M12585,2138.08c-14.39,0-24.39-12.9-24.39-32.24,0-17.77,9.15-29.82,22.08-29.82,13.54,0,22.81,12.9,22.81,32.25,0,17.76-8.41,29.81-20.5,29.81m-1.58-66.56c-17.68,0-35.61,12.9-35.61,36.5,0,22.75,16.83,34.68,35.61,34.68,17.68,0,34.88-13,34.88-36.62,0-22.75-15.85-34.56-34.88-34.56"
          transform="translate(-12178.54 -2042.57)" fill="currentColor"/>
    <path d="M12321.73,2104c0,21.79-8.17,31.76-18.9,31.76-7.19,0-12.2-3.89-12.2-11.43,0-9.13,7.2-14.24,24.27-19l6.83-1.91V2104Zm12,26.16v-35.65c0-15.09-6.7-23.12-22.81-23.12-13.41,0-24.52,8.28-27.93,18.61l1,0.37c4.88-6.69,13.42-12.65,22.19-12.65,10.74,0,15.61,6.21,15.61,19.23v1.48l-11.83,3.14c-18.9,5-31.46,12-31.46,25.19,0,9.73,5.85,15.94,18.17,15.94,13.52,0,21.62-8.7,24.39-18.12v16.78h22.44v-1.09l-1.59-.24c-5.85-.85-8.17-3.28-8.17-9.85"
          transform="translate(-12178.54 -2042.57)" fill="currentColor"/>
    <path d="M12523.09,2100.25h-34.84c0.61-13.88,8.72-24.22,20.2-24.22,12.19,0,15,11,15,19a27.81,27.81,0,0,1-.37,5.24m-13.54-28.84c-17.32,0-33.79,11.8-33.79,36.75,0,21.42,12.81,34.56,32.81,34.56,14.51,0,22.44-7.91,26.1-13.87l-0.86-.61c-5.12,5.11-11.23,8.28-19.52,8.28-15.09,0-25.88-11.45-26.09-31.15h47.19a51.84,51.84,0,0,0,.49-7.55c0-13.39-7.69-26.4-26.35-26.4"
          transform="translate(-12178.54 -2042.57)" fill="currentColor"/>
</svg>