<svg xmlns="http://www.w3.org/2000/svg" viewBox="0 0 35.22 32.89">
    <title>volume-loud</title>
    <path d="M-300.39,1063.68h6.08l8.05-9a1.13,1.13,0,0,1,2,.75v29.58a1.17,1.17,0,0,1-2,.77l-7.75-8.79-7.36.07v-12.37A1.06,1.06,0,0,1-300.39,1063.68Z"
          transform="translate(301.96 -1053.84)" fill="none" stroke="currentColor" stroke-miterlimit="10"/>
    <path d="M-279.16,1063.32a7.41,7.41,0,0,1,5.06,7,7.41,7.41,0,0,1-5.05,7" transform="translate(301.96 -1053.84)"
          fill="none" stroke="currentColor" stroke-linecap="round" stroke-linejoin="round"/>
    <path d="M-275.79,1057.54a13.77,13.77,0,0,1,8.55,12.75,13.77,13.77,0,0,1-8.41,12.69"
          transform="translate(301.96 -1053.84)" fill="none" stroke="currentColor" stroke-linecap="round"
          stroke-linejoin="round"/>
</svg>